<svg width="699" height="231" viewBox="0 0 699 231" fill="none" xmlns="http://www.w3.org/2000/svg">
<path d="M235.845 141.648V55.0207H284.192V59.9274H241.132V95.839H280.174V100.746H241.132V141.648H235.845ZM291.478 141.648H285.895L317.153 55.0207H323.244L354.503 141.648H348.92L320.41 61.8308H319.987L291.478 141.648ZM299.388 109.036H341.01V113.943H299.388V109.036ZM370.661 141.648V55.0207H375.948V136.742H418.247V141.648H370.661ZM500.275 82.0919H494.861C494.297 79.1592 493.239 76.3252 491.688 73.5898C490.137 70.8263 488.135 68.3448 485.682 66.1453C483.257 63.9176 480.437 62.1551 477.222 60.8579C474.007 59.5608 470.454 58.9122 466.563 58.9122C460.867 58.9122 455.622 60.435 450.828 63.4805C446.062 66.4978 442.241 70.9391 439.365 76.8045C436.517 82.67 435.093 89.8466 435.093 98.3346C435.093 106.879 436.517 114.084 439.365 119.949C442.241 125.815 446.062 130.256 450.828 133.273C455.622 136.262 460.867 137.757 466.563 137.757C470.454 137.757 474.007 137.122 477.222 135.854C480.437 134.556 483.257 132.808 485.682 130.608C488.135 128.381 490.137 125.885 491.688 123.122C493.239 120.358 494.297 117.51 494.861 114.577H500.275C499.654 118.074 498.456 121.5 496.679 124.856C494.931 128.212 492.619 131.257 489.742 133.992C486.894 136.699 483.525 138.857 479.633 140.464C475.77 142.043 471.413 142.833 466.563 142.833C459.344 142.833 452.985 141 447.486 137.334C441.987 133.64 437.673 128.451 434.543 121.768C431.441 115.085 429.89 107.274 429.89 98.3346C429.89 89.3955 431.441 81.5843 434.543 74.9011C437.673 68.2179 441.987 63.0434 447.486 59.3775C452.985 55.6834 459.344 53.8364 466.563 53.8364C471.413 53.8364 475.77 54.64 479.633 56.2474C483.525 57.8265 486.894 59.9697 489.742 62.6768C492.619 65.3557 494.931 68.373 496.679 71.7287C498.456 75.0844 499.654 78.5388 500.275 82.0919ZM520.599 141.648V55.0207H525.887V95.839H578.083V55.0207H583.371V141.648H578.083V100.746H525.887V141.648H520.599ZM599.624 55.0207H605.884L633.167 96.8118H633.759L661.042 55.0207H667.302L636.128 102.353V141.648H630.798V102.353L599.624 55.0207Z" fill="#3C3C3C"/>
<path d="M198.883 6.55067C198.204 6.49284 130.944 0.999234 101.108 0.941406H100.547C70.7048 0.999234 3.46585 6.49284 2.78617 6.55067L0.824219 6.70246V106.86C4.629 145.452 20.1144 172.645 37.8 191.512L37.807 191.533C37.9261 191.649 38.0523 191.786 38.1714 191.909C38.2905 192.032 38.4166 192.162 38.5357 192.285C64.3705 219.413 94.5705 229.013 99.9729 230.56L100.961 230.849L101.556 230.581L101.669 230.56C110.82 227.914 191.442 202.123 200.824 106.86V6.70246L198.869 6.55067H198.883ZM41.773 189.343C40.3365 181.898 35.726 155.832 35.5788 127.685C40.3646 128.299 51.1413 128.921 63.3334 124.36C78.5245 118.692 104.892 87.5307 108.802 82.8684C116.208 80.9529 122.465 80.8083 127.643 81.5745C127.244 85.1526 126.95 92.0557 129.136 99.4504C130.621 104.438 136.949 112.758 147.943 124.135C148.804 129.817 149.729 143.652 145.007 149.348C143.528 151.141 141.587 151.972 139.093 151.95C131.252 151.813 126.165 150.324 121.68 149.001C117 147.635 112.564 146.32 106.321 146.941C100.947 147.454 95.9369 150.367 92.2372 155.174C86.8418 162.128 84.5505 172.472 85.9589 183.553C87.8158 198.256 93.9118 216.377 96.8828 224.712C96.9178 224.799 96.9459 224.878 96.9739 224.965C96.8828 224.936 96.7847 224.9 96.6936 224.871C86.3864 221.264 62.6257 211.187 41.78 189.35L41.773 189.343ZM137.25 52.9427C137.341 52.9933 146.786 58.1689 149.764 68.238C151.411 73.8039 150.801 79.883 147.95 86.3669C143.101 81.8709 130.348 73.0955 108.718 78.3362C107.688 75.9941 106.111 71.1945 108.374 67.1899C109.334 65.484 111.401 63.7637 113.384 62.1011C116.741 59.3037 120.216 56.3907 119.761 52.4006C119.06 46.2203 108.01 37.8136 92.3283 38.7099C92.041 38.7172 85.2582 39.093 78.5386 45.1143C72.6036 50.4489 62.0371 52.0753 51.0011 52.4078C54.2384 46.1769 58.3304 40.1773 63.3474 36.2595C73.7878 28.0914 90.5485 20.0967 111.149 28.4383C132.885 37.2426 134.664 40.3074 135.856 42.3458C136.675 43.7698 136.493 48.1503 136.115 50.6585L135.87 52.2199L137.243 52.9644L137.25 52.9427ZM108.591 46.2781C107.407 49.2418 103.834 56.3256 97.121 56.8822C90.997 57.3954 87.045 49.5743 85.4194 45.5336C89.3293 43.3289 92.4894 43.1193 92.5525 43.112C99.111 42.7362 104.633 44.2397 108.591 46.2781ZM81.3554 48.4466C81.5165 48.3237 81.6637 48.1792 81.7968 48.0635C83.9199 53.0078 88.6566 61.3349 96.5254 61.3349C96.8408 61.3349 97.1421 61.3277 97.4714 61.2988C106.083 60.5832 110.567 52.668 112.305 48.6346C114.246 50.2031 115.374 51.7717 115.493 52.9138C115.69 54.4824 113.027 56.7015 110.687 58.6604C108.409 60.5687 106.034 62.5493 104.661 64.9636C101.269 70.9704 103.659 77.6856 105.018 80.5914C99.9168 86.6633 75.3434 115.172 61.869 120.203C50.1183 124.598 39.5868 123.774 35.5928 123.225C35.796 105.595 37.807 90.4582 41.6048 78.2133L41.6398 78.0398C41.6749 77.8663 43.9872 67.6742 48.85 56.8677C61.5046 56.6726 74.0611 54.9956 81.3624 48.4466H81.3554ZM102.166 225.796C102.075 225.825 101.977 225.854 101.893 225.883C101.872 225.832 101.858 225.789 101.837 225.731C99.5174 219.471 92.2092 198.827 90.2122 182.975C88.9509 173.101 90.9199 163.957 95.5795 157.95C98.5715 154.105 102.523 151.741 106.721 151.358C112.151 150.83 115.837 151.907 120.496 153.288C125.233 154.676 130.621 156.251 139.002 156.396C142.828 156.483 145.939 155.066 148.272 152.247C153.037 146.471 153.233 135.846 152.77 129.029C153.03 129.289 153.296 129.55 153.555 129.817C156.372 132.586 159.427 135.05 162.643 137.176C173.112 144.108 180.721 150.36 183.734 154.517C160.17 204.87 113.405 222.269 102.166 225.803V225.796ZM196.557 106.527C194.903 123.131 191.036 137.544 185.731 150.064C180.574 144.173 170.813 137.327 164.956 133.453C161.971 131.465 159.154 129.174 156.533 126.6C154.795 124.894 153.093 123.196 151.474 121.519C140.971 110.712 134.496 102.407 133.235 98.1637C131.35 91.8316 131.532 85.7814 131.862 82.4925C141.741 85.1959 146.548 91.1232 146.864 91.528L148.875 94.123L150.423 91.1883C154.95 82.5865 156.085 74.4328 153.842 66.9008C150.998 57.381 143.598 51.7789 140.55 49.8128C140.824 47.2828 141.034 42.6567 139.534 40.0544C137.495 36.5559 134.069 32.9561 112.719 24.3109C90.2542 15.2176 72.0641 23.87 60.7479 32.7103C55.3385 36.9462 50.9591 43.1916 47.5327 49.661C46.4957 51.6199 44.7159 53.0367 42.6138 53.586C40.4557 54.1571 38.2975 54.5763 38.2975 54.5763C39.0823 55.1185 42.9151 56.8822 44.0993 56.8894C39.811 66.8574 37.744 75.7701 37.4847 76.9628C33.4347 90.0462 31.3606 106.238 31.2765 125.082C31.1854 148.669 34.2895 171.193 36.3145 183.278C21.1725 165.316 8.48985 140.472 5.11249 106.534V10.801C16.4568 9.89743 73.7598 5.42303 100.547 5.37243H101.108C127.896 5.42303 185.199 9.89743 196.55 10.801V106.534L196.557 106.527Z" fill="#3C3C3C"/>
<path d="M183.733 154.515C160.169 204.869 113.404 222.267 102.165 225.802C102.074 225.831 101.976 225.86 101.892 225.889C101.871 225.838 101.857 225.795 101.836 225.737C99.5166 219.477 92.2083 198.833 90.2114 182.981C88.9501 173.107 90.9191 163.963 95.5787 157.956C98.5707 154.111 102.523 151.747 106.72 151.364C112.15 150.836 115.836 151.913 120.495 153.294C125.232 154.682 130.621 156.257 139.001 156.402C142.827 156.489 145.938 155.072 148.271 152.253C153.036 146.477 153.232 135.852 152.77 129.035C153.029 129.295 153.295 129.556 153.554 129.823C156.371 132.592 159.426 135.056 162.642 137.182C173.111 144.114 180.72 150.366 183.733 154.523V154.515Z" fill="url(#paint0_linear_975_1804)" stroke="#231F20" stroke-miterlimit="10"/>
<path d="M145.005 149.356C143.526 151.149 141.585 151.98 139.091 151.958C131.25 151.821 126.163 150.332 121.679 149.009C116.998 147.643 112.563 146.327 106.319 146.949C100.945 147.462 95.935 150.375 92.2354 155.182C86.84 162.136 84.5487 172.48 85.9571 183.561C87.814 198.264 93.91 216.385 96.881 224.72C96.916 224.806 96.944 224.886 96.9721 224.973C96.881 224.944 96.7829 224.908 96.6918 224.879C86.3845 221.272 62.6239 211.195 41.7781 189.358C40.3417 181.913 35.7311 155.847 35.584 127.7C40.3697 128.314 51.1465 128.936 63.3386 124.375C78.5297 118.707 104.897 87.5457 108.807 82.8834C116.213 80.9679 122.47 80.8233 127.649 81.5895C127.249 85.1676 126.955 92.0707 129.141 99.4654C130.627 104.453 136.954 112.773 147.948 124.15C148.81 129.832 149.735 143.667 145.012 149.363L145.005 149.356Z" fill="url(#paint1_linear_975_1804)" stroke="#231F20" stroke-miterlimit="10"/>
<path d="M110.687 58.6633C108.41 60.5716 106.035 62.5522 104.661 64.9665C101.27 70.9733 103.659 77.6885 105.019 80.5943C99.9178 86.6662 75.3443 115.175 61.8699 120.206C50.1192 124.601 39.5877 123.777 35.5938 123.228C35.797 105.597 37.808 90.4611 41.6057 78.2162L41.6408 78.0427C41.6758 77.8692 43.9881 67.6771 48.851 56.8706C61.5055 56.6755 74.062 54.9985 81.3633 48.4495C81.5245 48.3266 81.6716 48.1821 81.8047 48.0664C83.9279 53.0106 88.6646 61.3378 96.5334 61.3378C96.8487 61.3378 97.15 61.3306 97.4793 61.3017C106.091 60.586 110.575 52.6709 112.313 48.6375C114.254 50.206 115.382 51.7746 115.501 52.9167C115.697 54.4853 113.035 56.7044 110.694 58.6633H110.687Z" fill="url(#paint2_linear_975_1804)" stroke="#231F20" stroke-miterlimit="10"/>
<path d="M147.95 86.3601C143.102 81.864 130.349 73.0887 108.718 78.3293C107.688 75.9873 106.112 71.1876 108.375 67.1831C109.335 65.4772 111.402 63.7568 113.385 62.0943C116.741 59.2969 120.217 56.3838 119.761 52.3937C119.061 46.2134 108.011 37.8068 92.3291 38.7031C92.0418 38.7103 85.259 39.0862 78.5394 45.1075C72.6045 50.442 62.0379 52.0684 51.002 52.4009C54.2392 46.17 58.3312 40.1704 63.3482 36.2526C73.7886 28.0845 90.5493 20.0899 111.15 28.4315C132.885 37.2357 134.665 40.3006 135.856 42.339C136.676 43.763 136.494 48.1434 136.116 50.6517L135.87 52.213L137.244 52.9575C137.335 53.0081 146.78 58.1837 149.758 68.2529C151.405 73.8188 150.795 79.8979 147.943 86.3818L147.95 86.3601Z" fill="url(#paint3_linear_975_1804)" stroke="#231F20" stroke-miterlimit="10"/>
<defs>
<linearGradient id="paint0_linear_975_1804" x1="102.357" y1="145.985" x2="170.55" y2="212.877" gradientUnits="userSpaceOnUse">
<stop stop-color="#BCBABA"/>
<stop offset="0.0001" stop-color="#979797"/>
<stop offset="0.445" stop-color="#787878" stop-opacity="0.87"/>
<stop offset="0.77" stop-color="#4E4E4F"/>
<stop offset="1" stop-color="#D4A041"/>
</linearGradient>
<linearGradient id="paint1_linear_975_1804" x1="50.659" y1="106.324" x2="149.342" y2="184.823" gradientUnits="userSpaceOnUse">
<stop stop-color="#C9C9C9"/>
<stop offset="0.0001" stop-color="#979797"/>
<stop offset="0.445" stop-color="#787878" stop-opacity="0.87"/>
<stop offset="0.9999" stop-color="#4E4E4F"/>
<stop offset="1" stop-color="#D4A041"/>
</linearGradient>
<linearGradient id="paint2_linear_975_1804" x1="46.2495" y1="61.2974" x2="99.3719" y2="118.114" gradientUnits="userSpaceOnUse">
<stop stop-color="#C9C9C9"/>
<stop offset="0.0001" stop-color="#979797"/>
<stop offset="0.445" stop-color="#787878" stop-opacity="0.87"/>
<stop offset="0.77" stop-color="#4E4E4F"/>
<stop offset="1" stop-color="#D4A041"/>
</linearGradient>
<linearGradient id="paint3_linear_975_1804" x1="64.2897" y1="35.658" x2="102.78" y2="98.7847" gradientUnits="userSpaceOnUse">
<stop stop-color="#C9C9C9"/>
<stop offset="0.0001" stop-color="#979797"/>
<stop offset="0.445" stop-color="#787878" stop-opacity="0.87"/>
<stop offset="0.61" stop-color="#4E4E4F"/>
<stop offset="0.67" stop-color="#D4A041"/>
</linearGradient>
</defs>
</svg>
